# xmcd
#
# Track frame offsets: 
#        150
#        21982
#        43308
#        64835
#        86160
#        107091
#        131599
#        156282
#        181142
#        200031
#        218984
#        237265
#        262090
#
# Disc length: 3783 seconds
#
# Revision: 0
# Processed by: cddbd v1.5.2PL0 Copyright (c) Steve Scherf et al.
# Submitted via: ExactAudioCopy v0.95a5
#
DISCID=c60ec50d
DTITLE=高鹏 - 八零厚声
DYEAR=1900
DGENRE=Tribal
TTITLE0=黄玫瑰
TTITLE1=天边
TTITLE2=套马杆
TTITLE3=草原夜色美
TTITLE4=鸿雁
TTITLE5=蒙古人
TTITLE6=高原蓝
TTITLE7=呼伦贝尔大草原
TTITLE8=陪你一起看草原
TTITLE9=把你带回我的草原
TTITLE10=遇上你是我的缘
TTITLE11=西海情歌
TTITLE12=我的九寨
EXTD=
EXTT0=
EXTT1=
EXTT2=
EXTT3=
EXTT4=
EXTT5=
EXTT6=
EXTT7=
EXTT8=
EXTT9=
EXTT10=
EXTT11=
EXTT12=
PLAYORDER=
